#!OML:ASF E:/inclinewalkrobotboard/Project1/Captureday1/Session1/subject1.ASF
:FULLY-SPECIFIED
:DEGREES
326
root 0 0 0 1.795583303560769 -10.214964772544754 0.8981087913514106
lowerback 0.3261979596090083 -1.6214934508048566 -2.6052476373585303
upperback -0.413069890515961 -2.10193900658348 2.0138409516403866
thorax -0.5007158302422848 -1.0590762279733523 3.481176064116805
lowerneck -25.8543124370515 -1.7387397610358764 -7.391771401178328
upperneck 23.02236532928924 0.057590125909078416 2.390711679042523
head 11.99234565985742 -0.45563050711042574 2.245492302157514
rclavicle 1.8566339089902427E-15 -9.903208106925433E-16
rhumerus -33.91150731766406 -5.3933814268528275 -78.86043199868168
rradius 28.95152204572088
rwrist 20.53147034591769
rhand -17.28707279500709 8.906386744874672
rfingers 7.125019999999944
rthumb 8.955565660798412 -20.83634781077741
lclavicle -3.0256268624978823E-15 1.9009997058245407E-15
lhumerus -23.667783966228406 -4.9111377602483515 92.57560309315474
lradius 62.76576700419963
lwrist 3.1118151395705116
lhand -27.825461343820724 21.412390585775018
lfingers 7.125020000000007
lthumb -1.245363686949875 51.45434463984984
rfemur -9.834665509465022 8.372963951891254 37.96631530739309
rtibia 18.070955730033464
rfoot -18.184277060076504 -8.977110656616636
rtoes 11.57661916072123
lfemur -14.123685894228906 1.7467438945530125 -13.273676927235618
ltibia 56.758160378566004
lfoot 4.478861117193887 -8.649898886310732
ltoes -10.468893034343292
327
root 0 0 0 1.7924446086834385 -10.221375562045985 0.898777850295533
lowerback 0.2688734506687671 -1.606361835454014 -2.6228370944913353
upperback -0.4480262499886994 -2.086075439006777 1.9931034568617723
thorax -0.5084978176912813 -1.048082143461349 3.467180619567533
lowerneck -25.804985227382655 -1.7656762436536235 -7.421860618781373
upperneck 23.16353909416599 0.007916092781128925 2.433392281290193
head 12.03290809214219 -0.4800373467926453 2.2591500840494176
rclavicle 2.86064236645349E-15 -6.936740833717047E-16
rhumerus -33.31827433576923 -5.252962182108604 -79.58009449745613
rradius 29.483127140342397
rwrist 20.105770742378954
rhand -17.34506787646041 9.011533281177037
rfingers 7.125019999999936
rthumb 8.899820175315458 -20.723852182192772
lclavicle -3.2601028696460477E-15 2.4772481731604857E-15
lhumerus -23.49719432238238 -4.524759352233113 92.69640495423245
lradius 62.63900831757974
lwrist 2.772864120432633
lhand -28.078293536092957 21.179068287491848
lfingers 7.12502000000001
lthumb -1.4905654386137197 51.20390361838439
rfemur -3.715927330928942 8.864241858823066 39.02416918704456
rtibia 16.623742480668973
rfoot -22.624847215102786 -8.774719781799304
rtoes 9.628096668962183
lfemur -19.33424928529996 2.7417926003236204 -12.895959724422529
ltibia 58.3913328545851
lfoot 0.29708517058413086 -6.27801052601618
ltoes -9.086360701246718
328
root 0 0 0 1.7931383992011565 -10.227952217784834 0.9080187217929494
lowerback 0.20179656320412853 -1.5939318379587284 -2.642658031370782
upperback -0.4800184590765683 -2.0738771711907984 1.9653626255792593
thorax -0.5073037165582076 -1.0385511659904252 3.4466827374972464
lowerneck -25.82400352663373 -1.8117059333729002 -7.454449828630496
upperneck 23.24780242905417 -0.06849529155147738 2.496359976185581
head 12.065592827063835 -0.5122826973399361 2.2760627807232185
rclavicle 2.7109617336005255E-15 -5.674149277038046E-16
rhumerus -32.55571114292081 -4.7391025285709585 -80.48054691935941
rradius 30.177347913328706
rwrist 19.56167421250089
rhand -17.509838541754092 9.138452771932153
rfingers 7.12501999999993
rthumb 8.739875125746668 -20.601288953338944
lclavicle -3.136110358596481E-15 2.705150757114155E-15
lhumerus -23.145883879504314 -3.9795922244116215 92.64406847852895
lradius 62.507726974264486
lwrist 2.5162045132746
lhand -28.248897128806146 21.046275152458044
lfingers 7.125020000000011
lthumb -1.6547860100467018 51.05891135477085
rfemur -0.22076006116162183 8.913014984850129 38.98551175381693
rtibia 17.40086250991008
rfoot -23.703311306464517 -8.527534389879136
rtoes 7.600445348315937
lfemur -22.679645556875343 2.8522911781017664 -12.53314164775348
ltibia 57.39866433295527
lfoot -1.8289728534900238 -4.538637087603282
ltoes -8.084212967954707
329
root 0 0 0 1.8006994014566589 -10.23028946532846 0.9177722442384882
lowerback 0.14790905342158345 -1.5861331571764101 -2.6584692614922822
upperback -0.49410198853640436 -2.0671873563809218 1.939679334802093
thorax -0.4939068224768759 -1.032935488063202 3.4259426990986723
lowerneck -25.85589833374629 -1.8586978506053689 -7.485575743843479
upperneck 23.318627574307055 -0.14498259147440484 2.5573701969760476
head 12.095274906960462 -0.543065742128558 2.292315386713632
rclavicle -2.144633643686004E-16 -6.701670964222756E-16
rhumerus -31.70443681677032 -3.6759616626497746 -81.42988412298445
rradius 30.954774270900867
rwrist 18.97394380895715
rhand -17.800871024282515 9.243620206338322
rfingers 7.125019999999929
rthumb 8.457748227176575 -20.509203149555134
lclavicle -3.586485295091932E-15 2.6703947241911986E-15
lhumerus -22.787305193763572 -3.3967196207410177 92.52294100236047
lradius 62.27062486933877
lwrist 2.3695873910936944
lhand -28.322262890038512 20.923083229732207
lfingers 7.12502000000001
lthumb -1.7265646887957065 50.92768353370246
rfemur 3.2054337074505668 8.824538190336034 38.760378331272435
rtibia 19.20679397592231
rfoot -24.114388288455423 -8.195755892634907
rtoes 5.398843803509324
lfemur -25.4666497261869 2.393194615415748 -11.945660376665193
ltibia 53.787852112160465
lfoot -3.1926891544776828 -2.783566331187499
ltoes -7.2555207109429265
